<svg version="1.1" id="Layer_1" xmlns="http://www.w3.org/2000/svg" xmlns:xlink="http://www.w3.org/1999/xlink" x="0px" y="0px"
	 width="100%" viewBox="0 0 976 976" enable-background="new 0 0 976 976" xml:space="preserve">
<path fill="#000000" opacity="1.000000" stroke="none" 
	d="
M448.339417,756.604492 
	C465.553894,759.229553 482.389557,761.133240 499.410431,760.576294 
	C534.994263,759.411987 569.404663,752.577271 602.159973,738.464355 
	C616.506165,732.283142 630.599365,725.306274 643.543335,716.577515 
	C653.368896,709.951660 662.989258,702.958130 672.279053,695.411438 
	C689.420410,681.486206 703.261963,664.753723 717.002380,647.899231 
	C725.641724,637.301941 733.982239,626.246765 740.346191,614.049072 
	C743.321533,608.346191 746.115662,602.550049 749.987427,597.257568 
	C746.220947,609.215820 740.215637,620.187134 733.489197,631.679382 
	C737.841125,630.867432 739.241577,628.258179 740.798401,625.749084 
	C747.556580,614.856812 752.741028,603.218445 758.131714,591.606628 
	C763.196411,580.697021 766.474915,569.242432 770.943665,558.186279 
	C771.545044,556.698364 771.544617,554.937500 771.661987,553.291504 
	C771.800720,551.346985 772.083069,549.602905 774.499573,549.169739 
	C776.655457,550.747253 776.172424,552.860596 775.647827,555.003479 
	C772.057739,569.668274 768.570374,584.361206 762.114075,598.131897 
	C761.211243,600.057556 760.136475,602.026855 760.776917,604.338074 
	C761.173157,605.768005 760.702209,607.303406 759.686218,607.993896 
	C755.423950,610.890259 754.472778,615.981873 751.534058,619.720337 
	C749.693848,622.061462 749.384216,624.459839 750.959229,627.320801 
	C755.771484,625.677856 754.895752,619.153748 759.757996,617.663025 
	C745.227539,648.974915 723.374084,675.222046 700.582886,701.170898 
	C701.894165,701.652466 702.398315,701.921753 702.456177,701.846802 
	C706.153076,697.054321 711.627747,694.277832 715.168152,688.932312 
	C720.055786,681.552734 727.223877,675.773560 732.672729,668.610474 
	C739.918396,659.085510 746.763367,649.342529 752.738525,638.948608 
	C757.035828,631.473389 762.038818,624.406616 766.626526,617.094604 
	C769.870789,611.923828 772.915771,606.636536 774.683899,600.723450 
	C775.251038,598.826660 775.783447,596.823181 778.098022,596.401794 
	C780.297302,596.920715 778.533997,599.306946 780.399353,600.300476 
	C787.152039,595.499084 785.000549,586.000549 790.600159,580.632324 
	C777.592651,629.162842 749.924438,669.269531 716.443054,706.855591 
	C721.533142,707.196777 722.141602,702.288757 726.336243,702.674988 
	C722.736877,706.792358 719.419006,711.203186 715.486816,714.973450 
	C702.276917,727.639343 687.757385,738.716797 672.667236,749.026794 
	C657.979492,759.061829 642.726685,768.330383 626.687439,775.896667 
	C602.277405,787.411682 576.853455,796.671936 549.919189,800.020691 
	C532.988586,802.125671 515.998657,804.674438 498.823029,804.325867 
	C490.498749,804.157043 482.270813,804.982056 473.997070,805.863586 
	C468.641113,806.434265 462.915710,805.915283 457.668488,804.619202 
	C447.654510,802.145508 437.702209,799.748657 427.352203,799.136597 
	C422.686981,798.860779 418.907715,795.433899 414.109955,794.956604 
	C398.178345,793.371704 384.132446,785.866333 369.332092,780.631653 
	C360.357513,777.457520 352.793976,771.582947 343.700104,768.888367 
	C342.144501,768.427429 340.631531,767.515747 339.349426,766.497009 
	C335.722534,763.615295 331.652100,761.500916 327.748901,759.096191 
	C316.082245,751.908630 304.693451,744.148010 293.939911,735.668030 
	C290.272583,732.776001 287.495300,728.358215 283.666351,725.200623 
	C278.028931,720.551636 272.438995,715.831726 267.047791,710.902588 
	C263.883911,708.009766 260.607086,705.083618 258.918915,700.936157 
	C257.175873,696.653809 252.186493,696.031738 249.605133,692.669189 
	C249.032013,691.922607 247.359451,691.469910 247.372009,690.908203 
	C247.510132,684.734924 241.446320,683.306702 238.763962,679.342712 
	C237.740585,677.830383 236.665955,676.307251 235.950180,674.644653 
	C235.159592,672.808289 234.826859,670.881653 232.181137,670.715515 
	C231.475266,670.671204 230.765671,669.413757 230.216110,668.605530 
	C229.857880,668.078674 229.945786,667.231384 229.561066,666.742126 
	C222.970444,658.361023 220.055359,647.910217 213.710510,639.288452 
	C208.122147,631.694580 204.857239,622.612305 201.028702,613.975464 
	C195.773880,602.121033 191.466995,589.834229 188.829712,577.189819 
	C187.461472,570.629761 182.999023,564.347595 185.667877,557.111755 
	C181.060501,549.053711 181.200195,539.840454 179.556244,531.102051 
	C176.170700,513.106323 176.710037,494.940033 177.407394,476.700500 
	C177.872192,464.542877 179.252762,452.535797 180.933578,440.574097 
	C182.338760,430.574005 185.064697,420.724243 186.928055,410.802582 
	C189.647537,396.322571 196.510590,383.559967 201.417633,370.001892 
	C204.516846,361.438843 209.131119,353.518280 212.052216,344.829651 
	C213.390778,340.848175 216.658401,337.557129 218.686142,333.758148 
	C226.982117,318.215454 237.020981,303.882843 248.261353,290.352234 
	C253.124054,284.498810 257.744720,278.440277 262.710266,272.677338 
	C269.090332,265.272705 277.095184,259.690674 284.561890,253.474182 
	C300.935638,239.842041 317.958557,227.162735 336.453613,216.606339 
	C344.932922,211.766602 354.100067,208.148514 362.745605,203.579666 
	C376.144867,196.498642 390.833038,192.691040 404.634735,186.648804 
	C408.093811,185.134430 412.371735,185.360580 415.545654,184.120270 
	C422.658325,181.340790 429.945618,183.026718 437.120087,181.630280 
	C449.520966,179.216614 462.066162,176.267334 474.995270,176.584305 
	C484.745972,176.823364 494.556488,175.388672 504.276947,175.901413 
	C516.204163,176.530533 528.151917,177.597244 539.973022,179.591644 
	C547.087402,180.791992 553.978271,184.147110 561.484619,181.811691 
	C562.377441,181.533920 563.416565,181.823303 564.094604,182.822617 
	C564.532227,183.467545 565.648560,184.480133 565.781738,184.384293 
	C571.439697,180.313065 575.121338,187.371078 580.569458,186.943573 
	C585.911011,186.524445 591.499451,189.304855 596.988037,190.646408 
	C597.787659,190.841858 598.964905,190.525681 599.408569,190.985489 
	C604.283630,196.038315 611.886169,195.770813 617.050842,200.119720 
	C618.779724,201.575577 620.223389,202.978455 622.673035,201.712051 
	C623.151794,201.464539 624.242676,201.599579 624.568359,201.975983 
	C630.771057,209.144455 641.154480,208.088440 647.937134,213.795609 
	C652.225220,217.403854 657.524475,218.641754 662.138977,221.369614 
	C663.647034,222.261124 665.671509,222.581558 665.166382,225.214340 
	C664.859436,226.814743 666.693176,227.250671 667.536072,227.193710 
	C673.880188,226.765045 678.865112,230.330292 682.817383,234.038849 
	C689.632996,240.434280 697.698486,245.111374 704.527466,251.325119 
	C709.963684,256.271606 714.924683,261.805878 719.618103,267.475342 
	C721.941528,270.282043 723.951111,273.354431 726.808350,275.659027 
	C733.042419,280.687286 737.754272,287.166779 743.374695,292.771637 
	C744.910706,294.303436 745.191223,296.276245 746.046204,298.037994 
	C750.996033,308.237732 758.530701,316.759064 764.402771,326.377441 
	C769.123840,334.110443 772.688232,342.325836 775.947998,350.628967 
	C778.001160,355.858704 780.539673,360.947174 782.066223,366.379517 
	C785.721558,379.387512 791.823120,391.603668 795.338074,404.535370 
	C797.910645,414.000183 800.299622,423.727356 801.225586,433.734894 
	C802.203064,444.299835 804.492554,454.774323 804.948547,465.403717 
	C805.270813,472.916016 804.899109,480.489868 802.735107,487.958740 
	C799.898987,487.136230 799.923157,485.145050 799.732056,483.417908 
	C797.759460,465.587555 795.382874,447.781555 791.505798,430.291351 
	C788.725708,417.750000 784.780579,405.410797 779.447937,393.503632 
	C778.708130,401.850098 783.163452,409.556610 782.413025,417.952759 
	C778.496582,413.401337 779.188110,406.770233 774.664062,401.156708 
	C775.624207,407.273193 777.978088,411.909973 778.113342,417.150330 
	C774.909851,416.797424 774.429993,414.666809 773.734680,412.891388 
	C762.025513,382.991394 746.874023,354.917267 728.845337,328.382935 
	C723.099243,319.925964 715.355896,313.213684 708.328247,305.900299 
	C705.763245,303.230988 703.583252,300.319855 701.408875,297.413849 
	C696.020752,290.212860 688.415344,285.514648 681.750000,279.814636 
	C672.291382,271.725922 663.288391,262.949219 652.276428,256.829529 
	C628.704102,243.729645 604.758423,231.608063 578.567749,224.273453 
	C558.094482,218.539978 537.242310,216.074692 516.201538,214.005814 
	C506.958405,213.096970 497.647400,214.481369 488.451263,212.241577 
	C483.232513,210.970505 478.095703,214.041382 472.846558,214.303436 
	C457.229156,215.083145 441.768219,216.888641 426.615967,220.825668 
	C402.204865,227.168411 378.687317,235.703049 356.637177,248.224869 
	C335.038361,260.490417 315.498260,275.484741 298.182037,293.062714 
	C272.820679,318.807312 252.863968,348.401520 239.281662,382.079742 
	C227.227676,411.968353 220.618912,442.918762 219.118027,475.202881 
	C216.634338,528.627258 229.525909,578.129211 256.128815,624.050415 
	C271.827667,651.149353 291.858582,674.859314 315.996582,695.167786 
	C351.123627,724.722046 390.951904,744.330017 435.671173,754.223267 
	C439.722809,755.119568 443.827026,755.778259 448.339417,756.604492 
M681.728149,719.995789 
	C686.125427,717.685852 689.157959,714.060547 691.782898,710.027710 
	C685.106567,711.619934 682.405945,717.828430 676.314941,721.220276 
	C679.182068,722.206848 679.949463,720.681274 681.728149,719.995789 
M728.820374,644.211487 
	C729.421997,642.951538 730.248962,641.700073 728.902893,639.984802 
	C727.117188,642.199707 724.968994,643.847778 724.671936,646.783691 
	C726.930542,647.400818 727.505310,645.749390 728.820374,644.211487 
M655.717834,738.386292 
	C656.788513,737.316101 658.455994,736.744141 658.762634,734.753235 
	C655.594238,735.942200 652.767090,737.239807 651.320068,740.549133 
	C652.592651,739.932007 653.865234,739.314880 655.717834,738.386292 
z"/>
<path fill="#000000" opacity="1.000000" stroke="none" 
	d="
M375.346649,649.154907 
	C391.446960,645.119019 405.738281,637.438904 420.844421,631.916321 
	C428.748779,629.026672 436.754547,626.414429 444.660522,623.529053 
	C449.571594,621.736694 450.026764,619.758789 445.963867,616.820862 
	C436.936432,610.293030 428.323120,603.255859 420.140656,595.737610 
	C415.802765,591.751831 412.214569,586.950012 408.568817,582.146973 
	C410.977509,582.623047 412.667999,584.633667 415.211243,584.726440 
	C411.910217,578.418701 411.369324,578.502319 405.428955,580.791687 
	C401.465851,582.318970 398.277924,585.020142 394.967712,587.247681 
	C387.174652,592.491882 379.053406,597.183289 371.165131,602.251038 
	C366.589600,605.190491 363.848511,609.849243 359.843872,613.361145 
	C355.381195,617.274780 350.849091,620.046692 345.033417,620.320801 
	C342.531403,620.438721 340.782776,622.103760 338.469025,622.505737 
	C336.638336,622.823792 334.753082,623.692505 333.422699,621.880676 
	C331.843658,619.730347 333.586029,618.190735 334.860413,616.661011 
	C335.703400,615.649170 336.548828,614.639404 337.368500,613.658264 
	C332.712708,607.858215 332.820526,605.118713 337.463776,599.747803 
	C341.890778,594.627075 346.231964,589.428955 350.493652,584.169800 
	C352.406067,581.809753 354.502869,579.588440 357.026123,578.041870 
	C372.169373,568.760376 384.441620,555.852966 398.610016,545.333496 
	C408.123199,538.270325 417.976959,531.777161 427.996155,525.496216 
	C429.798187,524.366516 431.806030,523.480896 433.490997,521.171814 
	C418.828308,509.684570 413.785400,494.183868 414.509949,476.204102 
	C414.801422,468.971466 416.299713,462.248352 419.982574,455.795654 
	C422.419891,457.690155 420.075256,460.171173 421.782654,462.330139 
	C424.132874,456.766510 425.669586,450.992310 430.483826,446.884155 
	C432.273651,448.659424 431.141846,450.026642 430.367737,451.415924 
	C427.762665,456.091248 428.136597,458.154144 432.224945,461.856018 
	C433.258392,462.791809 432.981659,463.951721 432.759460,465.112061 
	C432.556152,466.173889 431.630463,467.234863 433.054352,468.752594 
	C434.130035,462.629486 436.982819,458.553345 443.873383,458.987732 
	C444.890686,460.731354 444.294373,462.821625 443.779358,464.879639 
	C443.483673,466.061249 443.128571,467.723175 444.301941,468.014404 
	C448.512482,469.059479 446.841064,472.216858 447.203339,474.771088 
	C447.816071,479.091461 446.145782,483.571930 448.913391,487.791779 
	C452.376526,493.072052 457.127533,494.888916 463.138947,495.249878 
	C475.545258,495.994873 487.908997,496.798798 500.378143,496.767426 
	C507.327820,496.750000 514.125916,495.724457 521.017944,495.646179 
	C526.846924,495.579987 530.956116,491.585571 533.990295,487.502136 
	C536.433289,484.214294 540.310913,481.917938 541.188538,477.123627 
	C541.731384,474.158173 544.879028,474.985504 545.923889,477.322113 
	C547.468384,480.776031 549.974365,481.950287 553.385864,481.983124 
	C557.262756,482.020447 557.988098,484.893463 558.292603,487.746033 
	C558.965210,494.047424 557.954224,500.256073 553.799744,505.091614 
	C546.601196,513.470276 538.475281,521.164062 527.065979,523.009705 
	C515.111694,524.943420 503.016632,526.162476 490.937866,527.127869 
	C478.499573,528.122070 466.015381,528.843567 453.516083,528.145874 
	C449.113464,527.900085 449.374054,532.960327 445.939484,533.897217 
	C446.495239,534.380127 446.681885,534.607422 446.735291,534.579468 
	C452.758087,531.434937 457.811127,531.780334 461.884399,538.011719 
	C462.954041,539.648071 466.451599,539.840515 467.372986,538.500549 
	C471.084351,533.103088 476.179779,535.953430 480.567322,535.934631 
	C487.810883,535.903503 495.085968,537.357178 502.296600,537.036072 
	C510.696167,536.662048 518.777954,539.260742 527.081726,538.816040 
	C537.802917,538.241821 548.468750,540.495605 559.095337,539.796814 
	C571.406067,538.987244 583.117615,541.412903 594.838257,544.229919 
	C597.629089,544.900696 600.972656,543.510315 602.840881,545.684143 
	C584.894409,580.253418 554.029541,600.539734 521.830811,619.381287 
	C523.692261,622.751343 526.264465,623.610046 528.609009,624.678711 
	C538.869446,629.355530 549.678833,632.529785 560.242126,636.353210 
	C571.694641,640.498474 583.582642,642.190735 595.163147,645.391296 
	C599.856689,646.688477 604.480957,644.245178 609.153442,645.057800 
	C611.137512,645.402954 609.947571,642.410767 612.239258,642.899780 
	C612.805481,645.391235 614.708252,646.092529 617.373108,645.606262 
	C625.058533,644.203918 632.631409,645.866333 639.718506,648.163452 
	C644.803467,649.811646 649.919800,649.220520 654.871948,650.547180 
	C657.123718,651.150452 660.058105,651.213257 659.951111,654.215759 
	C659.853088,656.964478 656.919434,657.192688 654.894287,657.180176 
	C650.843201,657.155151 649.527039,659.639954 649.423218,662.848328 
	C649.292664,666.881897 646.941040,668.249207 643.585815,669.099060 
	C632.749146,671.843933 621.670471,672.086243 610.597717,672.481995 
	C606.952759,672.612305 603.317139,672.993469 599.672546,673.151001 
	C587.724487,673.667603 576.463562,670.075378 565.004639,667.477905 
	C540.764526,661.983398 516.786316,655.509033 494.445831,644.525940 
	C485.438599,640.097717 477.792847,639.071167 468.938995,644.030518 
	C463.331970,647.171143 457.188629,650.451355 451.144318,651.549744 
	C442.680023,653.088013 434.843506,656.160522 427.206207,659.308594 
	C415.555817,664.111084 403.498352,667.660522 391.820740,672.300598 
	C384.148376,675.349304 375.844757,675.734192 367.891632,677.543762 
	C359.379425,679.480469 350.739807,677.284790 342.222809,679.642883 
	C337.077728,681.067261 331.350525,680.482788 325.881073,680.575378 
	C324.515076,680.598511 322.823883,680.350403 321.946930,678.473511 
	C323.214935,674.873169 326.864075,674.869873 329.659119,674.237854 
	C333.958649,673.265625 336.553131,671.189636 336.891418,666.765503 
	C337.132507,663.612000 339.143494,662.115173 341.705933,660.997192 
	C351.603577,656.678772 362.063263,654.000854 372.249786,650.525391 
	C373.187439,650.205383 374.074738,649.738037 375.346649,649.154907 
M451.647369,549.757202 
	C457.074463,548.224487 462.604156,552.245789 469.089844,549.082642 
	C462.302643,548.538025 456.559418,546.439880 450.350220,550.159363 
	C448.696716,550.776550 447.049622,551.401794 445.397186,554.628052 
	C448.847443,551.914673 450.888336,554.505066 453.193054,554.295166 
	C453.806305,551.928162 450.513062,552.047607 451.647369,549.757202 
M484.161316,568.418884 
	C471.984467,567.292969 459.682526,566.979309 447.908539,562.726135 
	C452.950653,561.036743 458.225861,563.916626 463.248047,561.828979 
	C457.450989,561.812744 451.877289,560.164551 446.423431,558.910034 
	C440.703949,557.594299 436.841492,559.517517 432.973022,562.572937 
	C431.589081,563.666077 428.143799,564.499084 430.164032,567.340515 
	C431.747772,569.568115 433.588745,572.808472 437.290436,570.676941 
	C439.197540,569.578735 440.230591,570.852844 441.188385,571.719116 
	C447.086731,577.053589 454.049408,580.994385 460.101471,586.046265 
	C468.179626,592.789429 477.941406,596.641541 486.424377,602.609192 
	C487.480804,603.352417 488.477386,603.454224 489.653412,602.784668 
	C503.543182,594.877747 516.902222,586.153320 529.840027,576.777344 
	C530.797485,576.083496 531.771484,575.324097 531.434448,573.944336 
	C531.093811,572.549438 529.890930,572.367249 528.700439,572.235168 
	C526.064331,571.942749 523.434937,571.568176 520.792297,571.360474 
	C508.880402,570.424255 496.964844,569.534485 484.161316,568.418884 
M422.022095,571.171082 
	C416.730530,573.455261 416.140961,575.196289 420.187042,578.688171 
	C418.533966,575.146423 423.819061,574.763916 422.022095,571.171082 
z"/>
<path fill="#000000" opacity="1.000000" stroke="none" 
	d="
M364.364990,327.741180 
	C366.550842,327.672577 368.258240,326.473480 370.234436,327.975739 
	C370.012573,325.822510 367.610413,326.655457 367.619904,324.268555 
	C372.591095,322.992828 377.830536,323.933258 382.922058,323.979889 
	C391.200867,324.055756 399.592163,324.864014 407.748352,324.389374 
	C419.007568,323.734131 430.241638,323.472778 441.446930,323.960968 
	C449.101227,324.294434 456.563629,322.949066 464.159393,322.846436 
	C477.226807,322.669800 490.301788,322.998749 503.408234,322.146759 
	C511.298523,321.633850 519.176758,319.671051 526.912964,320.145660 
	C537.674500,320.805878 548.058777,318.672485 558.539429,317.636780 
	C565.516907,316.947266 572.575928,315.816254 579.586426,313.196808 
	C587.404907,310.275452 595.842529,308.063385 604.265137,306.367706 
	C614.733704,304.260223 625.616577,305.255493 635.852966,301.734741 
	C637.922974,301.022766 640.495544,300.485138 641.503540,303.069397 
	C642.458313,305.517151 639.877869,306.322540 638.320129,307.444305 
	C637.917664,307.734161 637.476501,308.062592 637.009521,308.156189 
	C632.385498,309.083191 631.268433,312.371918 633.241943,315.825928 
	C635.302673,319.432831 633.252502,320.608582 631.018494,322.031708 
	C623.168213,327.032867 614.504395,330.296204 605.809448,333.418060 
	C598.947144,335.881989 591.832153,337.671539 585.051453,340.327515 
	C572.629639,345.193146 559.439819,345.391876 546.524597,347.213745 
	C530.736328,349.440948 514.904968,351.365540 499.084137,353.357330 
	C495.917114,353.756042 494.320007,355.594788 495.222656,358.440002 
	C497.212555,364.712280 498.465240,371.201355 501.104889,377.298096 
	C502.542328,380.618042 505.519684,382.106537 507.968079,384.085449 
	C510.094879,385.804443 510.985291,387.397797 510.549377,389.946686 
	C509.932312,393.554962 511.849792,394.756622 515.104797,394.751373 
	C528.420593,394.729919 541.736755,394.795959 555.051941,394.699371 
	C561.239258,394.654480 562.485718,389.120667 564.455933,385.073730 
	C567.955505,377.885345 571.123230,370.568756 575.965576,364.121582 
	C579.613647,359.264496 584.287659,355.469116 589.035400,351.859711 
	C590.906799,350.436981 594.145142,347.280945 596.005615,352.523743 
	C598.976562,351.842133 601.610352,349.578918 604.909302,350.363190 
	C606.037048,352.679535 603.191284,353.033875 603.078552,354.468048 
	C602.311035,356.890167 606.781250,357.050446 604.623596,360.097351 
	C609.159485,357.708862 612.332886,360.344330 615.721130,361.533417 
	C616.583740,371.331818 608.957642,376.270294 604.414612,382.961670 
	C601.543762,387.190186 597.210266,390.115997 594.203979,394.945251 
	C598.701538,397.459473 603.300171,396.300446 607.527100,396.605591 
	C621.757324,397.633026 636.021423,398.244843 650.281738,398.759247 
	C653.402039,398.871796 654.505859,399.949402 654.290955,402.863647 
	C653.309998,416.169647 654.242920,429.646362 650.545166,442.983978 
	C647.676819,441.542358 649.663635,438.445221 647.593994,436.400055 
	C645.454407,447.633148 644.331177,459.099823 640.384766,470.077057 
	C641.144897,459.722687 642.136597,449.450104 640.078857,438.653412 
	C639.067078,437.376221 638.450867,440.057404 637.101562,439.826263 
	C635.272217,434.002960 639.093689,428.025787 636.555786,422.148071 
	C633.128052,429.551147 635.403015,438.142059 631.325134,445.742706 
	C628.153137,444.806885 627.048279,447.187469 626.577820,450.943390 
	C623.910034,446.951080 624.613892,443.530975 625.174316,440.182495 
	C626.372009,433.026093 624.177979,430.492371 616.943176,430.277100 
	C609.963440,430.069397 602.983704,429.084839 596.021057,429.234558 
	C579.560486,429.588470 563.178467,428.706360 546.757751,427.749115 
	C538.759094,427.282867 530.622131,428.370361 522.515503,428.205933 
	C516.519226,428.084229 510.575745,427.784485 504.683228,426.690674 
	C500.539856,425.921509 496.526794,427.051636 491.208649,427.080566 
	C499.098236,436.119751 507.253113,442.297119 518.555969,443.404480 
	C521.701111,443.712616 526.781494,449.506531 526.728943,452.606384 
	C526.691956,454.790710 525.228149,456.199310 523.268494,456.158020 
	C520.150391,456.092346 518.402283,457.754150 516.956848,460.057465 
	C514.858643,463.400879 511.470062,464.044556 507.967346,464.663971 
	C490.413269,467.768097 476.174316,461.513824 464.279236,449.022339 
	C460.773346,445.340637 460.816254,442.717285 463.515442,440.789978 
	C462.890717,438.295898 460.903015,436.066864 461.856049,433.204773 
	C463.146301,431.501617 464.855682,434.292938 465.895874,432.971039 
	C467.155029,431.371002 469.265137,430.003784 468.520966,427.436951 
	C467.819855,425.018494 465.745880,425.370453 463.973755,425.425873 
	C455.570312,425.688599 447.092957,426.871368 438.787689,426.118591 
	C429.451996,425.272400 420.185791,425.480957 410.883789,425.498230 
	C399.215179,425.519867 387.461670,424.823059 375.916199,426.049530 
	C370.623077,426.611816 365.337341,428.773590 359.896667,428.367035 
	C358.787170,429.778656 360.564972,429.657532 360.624023,430.369385 
	C354.407104,433.010925 351.232330,439.418549 352.697784,446.780457 
	C353.797394,452.304749 351.993378,457.650696 351.909271,463.100891 
	C351.889618,464.373291 351.294952,466.338776 349.260681,466.106476 
	C347.443176,465.898926 347.206451,464.164490 346.821869,462.724579 
	C345.580353,458.076324 346.018280,453.126373 344.088959,448.020996 
	C342.143463,450.750122 339.242615,451.217255 336.780426,450.242065 
	C334.284637,449.253540 334.311676,446.086853 333.780090,443.713837 
	C331.129913,431.883484 329.378967,419.925507 328.625702,407.807220 
	C328.422302,404.535156 329.706818,403.701965 332.558746,403.688904 
	C347.059814,403.622559 361.257751,400.829468 375.495667,398.586578 
	C382.110657,397.544495 389.019287,399.034790 395.377655,396.188446 
	C388.033386,390.880493 379.938324,386.166931 379.563080,375.588898 
	C379.476654,373.152832 378.673920,370.707794 381.878143,368.803711 
	C383.441681,367.874634 383.478027,364.375519 384.195679,362.071625 
	C388.181061,362.124969 388.181061,362.124969 390.898285,358.345581 
	C378.891968,354.968140 366.298615,357.411072 354.227325,353.059204 
	C357.828918,350.260376 361.817871,352.776550 365.384735,351.267883 
	C354.974823,347.457642 343.588989,349.625977 333.600525,344.275940 
	C335.038483,341.770691 337.253723,342.533905 339.044434,343.348755 
	C343.664062,345.450836 348.182281,343.572235 352.700134,343.164581 
	C353.486755,343.093567 356.645874,343.741486 355.685028,340.237305 
	C355.228271,338.571594 357.956848,338.589813 359.281403,338.876190 
	C365.712555,340.266724 372.115143,338.757843 378.559204,338.826263 
	C369.377930,337.512238 359.851349,338.187866 351.403809,334.347046 
	C350.692688,332.523529 352.733063,332.791382 352.666931,331.745514 
	C351.782593,329.981018 349.032684,330.913544 348.304443,328.373840 
	C353.525787,326.654877 358.810730,328.245728 364.364990,327.741180 
M467.158203,379.120056 
	C462.946442,372.215973 462.846893,364.749512 464.614288,357.038452 
	C463.568298,356.756378 462.937103,356.414764 462.324860,356.445984 
	C445.574280,357.299927 428.839386,358.573059 412.040039,357.478455 
	C408.428467,357.243134 406.997589,359.645233 408.733795,363.085663 
	C409.946747,365.489319 410.342712,368.245087 411.588715,370.403809 
	C414.210602,374.946350 414.518951,381.509644 420.584930,383.315735 
	C425.299042,384.719299 426.012482,387.710785 424.898895,391.492096 
	C423.541412,396.101501 425.351410,397.053314 429.522339,396.901245 
	C444.645203,396.349915 459.775208,395.995148 474.902679,395.571533 
	C476.817078,395.517944 478.733063,395.498810 480.356903,394.482330 
	C475.270569,390.000244 471.520721,384.784821 467.158203,379.120056 
z"/>
<path fill="#000000" opacity="1.000000" stroke="none" 
	d="
M573.747620,451.450439 
	C573.792175,450.009949 573.122986,448.783478 574.284180,447.872833 
	C579.705078,451.850250 581.275574,451.198456 583.666565,444.217621 
	C584.333130,442.271759 586.167358,440.867157 585.923645,439.032532 
	C596.673462,439.695221 601.546021,447.884216 607.678345,454.359985 
	C616.368835,463.537170 623.362183,474.232697 632.757385,482.744629 
	C635.212158,484.968628 638.687744,486.080963 641.726746,487.640930 
	C644.988831,489.315399 649.926941,498.943756 649.133911,502.487793 
	C648.510132,505.275787 646.456299,505.674469 644.095947,504.872833 
	C642.357666,504.282440 640.849121,503.357788 639.099854,505.100739 
	C635.610657,508.577209 631.349487,508.502258 627.020264,507.089233 
	C619.837524,504.744904 612.353149,503.430725 606.698425,497.336823 
	C603.031189,493.384766 597.934387,490.767456 593.512329,487.505768 
	C585.036621,481.254120 578.735291,473.085175 573.672791,464.008698 
	C572.403198,461.732330 569.176331,458.111694 574.810181,456.365234 
	C574.426270,454.681976 574.096863,453.237793 573.747620,451.450439 
z"/>
<path fill="#000000" opacity="1.000000" stroke="none" 
	d="
M352.859192,524.909729 
	C350.635864,525.623962 348.787964,526.917603 346.929565,525.058960 
	C345.252380,523.381470 346.064697,521.647217 346.898956,520.016113 
	C347.781586,518.290283 347.482971,517.053711 346.210876,515.560669 
	C343.697083,512.610229 343.107727,509.001099 343.800446,505.257660 
	C345.147797,497.976746 346.295227,490.906158 350.894501,484.386353 
	C356.421143,476.551880 360.101471,467.397156 367.210968,460.627167 
	C371.365295,456.671204 375.047211,451.964539 380.806580,450.610565 
	C382.689880,450.975677 381.437103,452.922272 382.934265,453.517242 
	C385.657806,452.396027 388.265594,449.608002 391.843750,451.525818 
	C389.560364,458.084778 389.905823,458.462280 397.276550,459.497467 
	C399.188202,459.765930 400.994812,460.782440 402.471619,461.318176 
	C405.186676,471.639648 397.248322,476.970123 392.258392,483.082458 
	C384.460388,492.634491 375.466888,501.220520 366.833588,510.073120 
	C364.905365,512.050354 365.136261,514.650024 364.205902,516.865540 
	C362.030243,522.046448 358.473724,524.327759 352.859192,524.909729 
z"/>
<path fill="#000000" opacity="1.000000" stroke="none" 
	d="
M785.238586,502.686157 
	C783.669861,508.890472 785.089783,515.001282 782.907959,520.662537 
	C782.291382,522.262390 782.905396,524.369080 779.590454,526.204895 
	C780.000183,512.919556 783.749695,500.847229 783.704346,488.398346 
	C786.057251,492.918457 785.108337,497.621155 785.238586,502.686157 
z"/>
<path fill="#000000" opacity="1.000000" stroke="none" 
	d="
M777.279297,538.467407 
	C775.485168,541.157776 777.296143,544.794067 773.543030,547.313843 
	C773.234436,539.829468 775.972656,534.338684 779.831848,528.655151 
	C781.247925,532.508667 781.048706,533.191772 777.279297,538.467407 
z"/>
<path fill="#000000" opacity="1.000000" stroke="none" 
	d="
M632.990784,200.956375 
	C634.786316,202.024033 636.913818,202.077362 637.592468,204.631256 
	C633.572388,204.441345 630.502625,202.775879 627.249512,200.082367 
	C629.649841,198.974228 631.111877,200.237854 632.990784,200.956375 
z"/>
</svg>